/* XPM */
static char * Apple_xpm[] = {
"16 16 21 1",
" 	c None",
".	c #000000",
"+	c #1C1030",
"@	c #1C1030",
"#	c #170625",
"$	c #653D08",
"%	c #78570B",
"&	c #B7B10D",
"*	c #9D870C",
"=	c #633E06",
"-	c #91233B",
";	c #C00B1B",
">	c #F8394A",
",	c #FF6E76",
"'	c #810E21",
")	c #A40B1A",
"!	c #FFA3A1",
"~	c #E60B21",
"{	c #EFDAC8",
"]	c #A03B57",
"^	c #FFFFFF",
"         #      ",
"          #     ",
"     ###  #     ",
"    #$%&##      ",
"#  #$%*#=###    ",
" ##$%*#-#;>,#   ",
"   ###';'#'>,#  ",
"  #')';,!;>!>~# ",
"  #-';>~>!{>~;# ",
"  #]');~~>>~~)# ",
"  #]'));~~~;)'# ",
"   #]'));~;;)#  ",
"   #]''));))'#  ",
"    #]''');)#   ",
"    #--'#-)'#   ",
"     ### ###    "};
