/* XPM */
static char * exit_xpm[] = {
"64 64 415 2",
"  	c None",
". 	c #74C857",
"+ 	c #75C856",
"@ 	c #6EC360",
"# 	c #66BE68",
"$ 	c #74C856",
"% 	c #6AC064",
"& 	c #6AC065",
"* 	c #6AC164",
"= 	c #61BB6D",
"- 	c #6BC263",
"; 	c #6EC45F",
"> 	c #5AB773",
", 	c #73C759",
"' 	c #66BE69",
") 	c #72C65A",
"! 	c #67BE67",
"~ 	c #61BC6D",
"{ 	c #6EC55E",
"] 	c #6BC163",
"^ 	c #56B476",
"/ 	c #75C955",
"( 	c #56B576",
"_ 	c #639E71",
": 	c #6EA667",
"< 	c #5AB972",
"[ 	c #5CA475",
"} 	c #6F9E66",
"| 	c #63BD6B",
"1 	c #68BF66",
"2 	c #72C75A",
"3 	c #54B278",
"4 	c #70C55D",
"5 	c #68BF67",
"6 	c #52B278",
"7 	c #69986D",
"8 	c #6BAE68",
"9 	c #55B676",
"0 	c #6DA667",
"a 	c #63BE6B",
"b 	c #75C956",
"c 	c #5CB971",
"d 	c #61A072",
"e 	c #897756",
"f 	c #7C8B63",
"g 	c #5EA877",
"h 	c #85845F",
"i 	c #906F52",
"j 	c #6E9C70",
"k 	c #67B869",
"l 	c #6B996B",
"m 	c #53AE79",
"n 	c #61BD6C",
"o 	c #54B178",
"p 	c #709C6F",
"q 	c #906F51",
"r 	c #6E996D",
"s 	c #67A374",
"t 	c #8C7A58",
"u 	c #887756",
"v 	c #69C066",
"w 	c #6BA769",
"x 	c #877656",
"y 	c #9D5D47",
"z 	c #8D835F",
"A 	c #878862",
"B 	c #A4644C",
"C 	c #AB694D",
"D 	c #A57A57",
"E 	c #6E9E70",
"F 	c #5CA675",
"G 	c #8F6B4F",
"H 	c #76956A",
"I 	c #709B6F",
"J 	c #58AB78",
"K 	c #997D5A",
"L 	c #A3644C",
"M 	c #848C64",
"N 	c #907F5C",
"O 	c #A1634C",
"P 	c #9C5F48",
"Q 	c #877856",
"R 	c #60A172",
"S 	c #74C858",
"T 	c #62BB6C",
"U 	c #51B279",
"V 	c #729066",
"W 	c #9A6E50",
"X 	c #A4664D",
"Y 	c #A0654D",
"Z 	c #A0644D",
"` 	c #A7684C",
" .	c #BC744E",
"..	c #C47B52",
"+.	c #A67956",
"@.	c #84986B",
"#.	c #AB7252",
"$.	c #AE6D4F",
"%.	c #AC7051",
"&.	c #85976A",
"*.	c #A97C56",
"=.	c #AB694B",
"-.	c #A2654D",
";.	c #A3664D",
">.	c #A36248",
",.	c #8F7856",
"'.	c #6EA96C",
").	c #6CC261",
"!.	c #65AB6D",
"~.	c #65A172",
"{.	c #9C865D",
"].	c #AB684B",
"^.	c #CA8054",
"/.	c #C77E53",
"(.	c #BD764F",
"_.	c #C97F54",
":.	c #B66F4C",
"<.	c #B56E4B",
"[.	c #A8684C",
"}.	c #AA694C",
"|.	c #B66E4B",
"1.	c #AA7250",
"2.	c #828E66",
"3.	c #52B179",
"4.	c #5FB96F",
"5.	c #73C758",
"6.	c #6FC55E",
"7.	c #59B475",
"8.	c #8B7F5A",
"9.	c #A1654B",
"0.	c #AE6C4C",
"a.	c #AB694C",
"b.	c #BA734D",
"c.	c #C67D52",
"d.	c #B9724D",
"e.	c #B66D4A",
"f.	c #9F845B",
"g.	c #63A374",
"h.	c #63AB6F",
"i.	c #6FC35F",
"j.	c #6FC35E",
"k.	c #60AC71",
"l.	c #5DA977",
"m.	c #B28C5F",
"n.	c #BD734D",
"o.	c #BB734E",
"p.	c #BA724D",
"q.	c #B06E4D",
"r.	c #A26A4D",
"s.	c #8C7B57",
"t.	c #5AB374",
"u.	c #6FC45F",
"v.	c #5CAF74",
"w.	c #877554",
"x.	c #6A9E70",
"y.	c #94815D",
"z.	c #C07B53",
"A.	c #BD754E",
"B.	c #C87E53",
"C.	c #B9714D",
"D.	c #B5895D",
"E.	c #5EAA77",
"F.	c #54B078",
"G.	c #5DAE73",
"H.	c #56B376",
"I.	c #5DA876",
"J.	c #9A7354",
"K.	c #A06F52",
"L.	c #BE7B53",
"M.	c #C98054",
"N.	c #B46D4B",
"O.	c #BB734D",
"P.	c #C97F53",
"Q.	c #B46E4B",
"R.	c #CB8054",
"S.	c #C17C53",
"T.	c #957F5C",
"U.	c #65A272",
"V.	c #867654",
"W.	c #5EAE73",
"X.	c #5AB175",
"Y.	c #5CA876",
"Z.	c #8C7453",
"`.	c #BE7A52",
" +	c #C57D53",
".+	c #A1654D",
"++	c #B8714C",
"@+	c #BD744E",
"#+	c #9C7254",
"$+	c #996F52",
"%+	c #60A776",
"&+	c #6DC460",
"*+	c #877654",
"=+	c #957556",
"-+	c #9F664C",
";+	c #B7704D",
">+	c #C77D53",
",+	c #BE764F",
"'+	c #B66F4B",
")+	c #A9694C",
"!+	c #9F654D",
"~+	c #A1664D",
"{+	c #A4674D",
"]+	c #C67C52",
"^+	c #B36D4B",
"/+	c #AF6E4D",
"(+	c #977656",
"_+	c #6DC360",
":+	c #57B475",
"<+	c #53AD79",
"[+	c #6E9A6D",
"}+	c #9D6A50",
"|+	c #A2664D",
"1+	c #B26D4B",
"2+	c #9A6049",
"3+	c #945C44",
"4+	c #996048",
"5+	c #A06A4F",
"6+	c #71C65B",
"7+	c #66BF68",
"8+	c #60A975",
"9+	c #9C6C51",
"0+	c #A6684C",
"a+	c #AB6A4C",
"b+	c #9A5E47",
"c+	c #7F835D",
"d+	c #659E6F",
"e+	c #7D8660",
"f+	c #965A43",
"g+	c #995E47",
"h+	c #9D6D51",
"i+	c #70C55C",
"j+	c #5CB872",
"k+	c #5FA876",
"l+	c #985A44",
"m+	c #738F65",
"n+	c #4AB27D",
"o+	c #5BA775",
"p+	c #6B986B",
"q+	c #7A8A62",
"r+	c #995D46",
"s+	c #975B45",
"t+	c #6FC45E",
"u+	c #57A977",
"v+	c #80835D",
"w+	c #9E684E",
"x+	c #83805B",
"y+	c #5FA473",
"z+	c #4EB07B",
"A+	c #4CB17C",
"B+	c #58A977",
"C+	c #7A8961",
"D+	c #975D46",
"E+	c #985B45",
"F+	c #975E47",
"G+	c #788B63",
"H+	c #6F9468",
"I+	c #59A977",
"J+	c #4EAF7B",
"K+	c #59A676",
"L+	c #7F825D",
"M+	c #9B5E47",
"N+	c #995F48",
"O+	c #995C46",
"P+	c #995C45",
"Q+	c #80825D",
"R+	c #5EA473",
"S+	c #4FAF7B",
"T+	c #56AB78",
"U+	c #4CB07C",
"V+	c #4DB07C",
"W+	c #69B169",
"X+	c #7A8B62",
"Y+	c #858A63",
"Z+	c #97634A",
"`+	c #925942",
" @	c #7D825C",
".@	c #768B62",
"+@	c #5BA675",
"@@	c #4BB27D",
"#@	c #62BC6C",
"$@	c #749066",
"%@	c #946249",
"&@	c #905C44",
"*@	c #4BB17C",
"=@	c #71C55C",
"-@	c #56AA78",
";@	c #758F65",
">@	c #976048",
",@	c #9E634B",
"'@	c #8F6348",
")@	c #5AA876",
"!@	c #6CC262",
"~@	c #5BB773",
"{@	c #66AB6C",
"]@	c #887755",
"^@	c #9F644C",
"/@	c #946349",
"(@	c #709569",
"_@	c #6CC361",
":@	c #61A775",
"<@	c #927C5A",
"[@	c #A0674E",
"}@	c #A3664C",
"|@	c #945B43",
"1@	c #57B476",
"2@	c #9E6D51",
"3@	c #B06C4B",
"4@	c #975C43",
"5@	c #6BBF63",
"6@	c #6AA170",
"7@	c #9F6C50",
"8@	c #B16C4B",
"9@	c #73C858",
"0@	c #60A872",
"a@	c #8A7051",
"b@	c #A1674D",
"c@	c #6DC261",
"d@	c #53B079",
"e@	c #66A272",
"f@	c #9F6C51",
"g@	c #B06B4B",
"h@	c #69C065",
"i@	c #61A875",
"j@	c #A1654C",
"k@	c #925F46",
"l@	c #61A675",
"m@	c #9B6B50",
"n@	c #926349",
"o@	c #699B6E",
"p@	c #887655",
"q@	c #9D654C",
"r@	c #6AC264",
"s@	c #5EA474",
"t@	c #877655",
"u@	c #9B6048",
"v@	c #92654A",
"w@	c #6C996C",
"x@	c #6AB766",
"y@	c #6E996B",
"z@	c #779469",
"A@	c #8A6A4C",
"B@	c #5CAA77",
"C@	c #818D65",
"D@	c #6C976B",
"E@	c #51AD7A",
"F@	c #70C65C",
"G@	c #6AB669",
"H@	c #839468",
"I@	c #9C9768",
"J@	c #839268",
"K@	c #5FAE78",
"L@	c #9E9467",
"M@	c #9E6F52",
"N@	c #63A575",
"O@	c #898460",
"P@	c #62B66E",
"Q@	c #809267",
"R@	c #60A877",
"S@	c #A77E59",
"T@	c #A9674D",
"U@	c #72C759",
"V@	c #5EBA6F",
"W@	c #58AF79",
"X@	c #A09769",
"Y@	c #B17754",
"Z@	c #AB674C",
"`@	c #55B377",
" #	c #5BB574",
".#	c #A29A65",
"+#	c #9A855F",
"@#	c #5BB573",
"##	c #64A575",
"$#	c #7E9168",
"%#	c #5AB574",
"&#	c #848B65",
"*#	c #A36E51",
"=#	c #5EB870",
"-#	c #58B176",
";#	c #A49765",
">#	c #68B86D",
",#	c #57AF79",
"'#	c #56AC79",
")#	c #7C9469",
"!#	c #957758",
"~#	c #A37052",
"{#	c #C47E54",
"]#	c #C48457",
"^#	c #C28357",
"/#	c #A47253",
"(#	c #69B66A",
"_#	c #59AB78",
":#	c #8F7F5C",
"<#	c #55AD79",
"[#	c #6EA271",
"}#	c #9C7A58",
"|#	c #73A573",
"1#	c #6DAA75",
"2#	c #64A775",
"3#	c #907E5C",
"4#	c #50AF7B",
"5#	c #5AAB78",
"6#	c #749A6E",
"7#	c #8F805D",
"8#	c #57B376",
"9#	c #6CBF64",
"0#	c #63A873",
"a#	c #8F7F5D",
"b#	c #709E6F",
"c#	c #4DB07B",
"d#	c #59AA78",
"e#	c #6BAC6E",
"f#	c #6CB867",
"g#	c #6DC361",
"h#	c #71C65C",
". . . . . . . . . . . . . . . . . . . . . . . . . . . . . . . . . . . . . . . . . . . . . . . . . . . . . . . . . . . . . . . . ",
". . . . . . . . . . . . . . . . . . . . . . . . . . . . . . . . . . . . . . . . . . . . . . . . . . . . . . . . . . . . . . . . ",
". . . . . . . . . . . . . . . . . . . . . . . . . . . . . . . . . . . . . . . . . . . . . . . . . . . . . . . . . . . . . . . . ",
". . . . . . . . . . . . . . . . . . . . . . . . . . . . . . . . . . . . . . . . . . . . . . . . . . . . . . . . . . . . . . . . ",
". . . . . . . . . . . . . . . . . . . . . . . . . . . . . . . . . . . . . . . . . . . . . . . . . . . . . . . . . . . . . . . . ",
". . . . . . . . . . . . . . . . . . . . . . . . . . . . . . . . . . . . . . . . . . . . . . . . . . . . . . . . . . . . . . . . ",
". . . . . . . . . . . . . . . . . . . . . . . + . + @ # . . . . $ . . $ + . + % & . . . . . . . . . . . . . . . . . . . . . . . ",
". . . . . . . . . . . . . . . . . . . . . + * = - ; > > $ $ . , ' ) . ! ~ { ] ^ ~ / $ . . . . . . . . . . . . . . . . . . . . . ",
". . . . . . . . . . . . . . . . . . . . . ] ( _ : < [ } | 1 2 | 3 4 5 6 7 8 9 _ 0 a ] + . . . . . . . . . . . . . . . . . . . . ",
". . . . . . . . . . . . . . . . . . . $ b c d e f g h i j 6 k l m n o p q r s t u d ( ] . . . . . . . . . . . . . . . . . . . . ",
". . . . . . . . . . . . . . . . . . . ] v w x y z A B C D E F G H I J K L M N O P Q R > . $ . . . . . . . . . . . . . . . . . . ",
". . . . . . . . . . . . . . . . . . S T U V W X Y Z `  ...+.@.#.$.%.&.*.=.-.Y Y ;.>.,.'.] ).S . . . . . . . . . . . . . . . . . ",
". . . . . . . . . . . . . . . . . . . ; !.~.{.].Y Y `  .^./.(._.^._.(.:.<.[.Y Y }.|.1.2.3.4.5.. . . . . . . . . . . . . . . . . ",
". . . . . . . . . . . . . . . . . 6.@ 7.8.9.0.a.Y Y ` b./.^.^.^.^.^.c.d.<.[.Y Y }.e.f.g.h.i.. . . . . . . . . . . . . . . . . . ",
". . . . . . . . . . . . . . . S j.k.m l.m.n.<.}.Y Y [.<.o.^.^.^.^._.p.<.<.[.Y Y }.|.q.r.s.t.u.4 S . . . . . . . . . . . . . . . ",
". . . . . . . . . . . . . . S u.v.w.x.y.z.A.<.}.Y Y [.<.p.B.^.^.^.B.C.<.<.[.Y Y }.<. .B.D.E.F.G.j.S . . . . . . . . . . . . . . ",
". . . . . . . . . . . . . . ; H.I.J.K.L.M.A.N.}.Y Y [.<.<.O.B.P.B.p.<.<.Q.` Y Y }.N.A.R.S.T.U.V.W.; . . . . . . . . . . . . . . ",
". . . . . . . . . . . . . i.X.Y.Z.`. +_.^. .}..+Y Y ` Q.Q.|.++++++<.Q.Q.[..+Y Y .+}.@+^._.L.#+$+%+X.i.. . . . . . . . . . . . . ",
". . . . . . . . . . . . &+h.*+=+-+;+>+^.,+'+)+!+Y Y ~+{+[.Q.<.<.<.Q.` {+.+Y Y Y !+)+'+,+^.]+^+/+(+*+h.&+. . . . . . . . . . . . ",
". . . . . . . . . . $ _+:+<+[+}+|+1+d.b.:.a.|+2+3+4+Y Y .+[.Q.<.N.` .+Y Y Y 4+3+2+|+a.:.b.d.<.^+5+[+<+:+_+$ . . . . . . . . . . ",
". . . . . . . . . . . 6+] 7+8+9+Y 0+1+<.a+|+b+c+d+e+f+g+Y .+0+0+0+.+Y Y g+f+e+d+c+b+|+a+<.<.^+` h+8+7+] 6+. . . . . . . . . . . ",
". . . . . . . . . . . $ i+j+k+9+Y Y 0+[.|+Y l+m+n+o+p+q+g+Y Y Y Y Y r+s+q+p+o+n+m+l+Y |+[.[.` Y 9+k+j+i+$ . . . . . . . . . . . ",
". . . . . . . . . . . t+j+u+v+w+Y Y Y Y b+l+x+y+z+z+A+B+C+D+E+E+E+F+G+H+I+A+J+J+y+x+l+b+Y Y Y Y w+v+u+j+t+. . . . . . . . . . . ",
". . . . . . . . . . $ * K+L+M+Y Y N+O+P+Q+m+R+A+    S+z+B+m+m+m+m+V T+U+z+S+S+S+V+y+m+Q+P+O+N+Y Y M+L+K+* $ . . . . . . . . . . ",
". . . . . . . . . . . 6.W+X+Y+Z+g+`+ @.@+@@@V+        S+S+V+V+V+V+V+S+S+        S+z+A++@.@ @`+g+Z+Y+X+W+6.. . . . . . . . . . . ",
". . . . . . . . . . $ 6+#@<+$@%@&@ @B+*@z+              S+S+S+S+S+S+S+              S+z+*@B+ @&@%@$@<+#@6+$ . . . . . . . . . . ",
". . . . . . . . . . =@= -@;@>@,@'@)@V+                                                    V+)@'@,@>@;@-@= =@. . . . . . . . . . ",
". . . . . . . . . $ !@~@{@]@Y ^@/@(@                                                        (@/@^@Y ]@{@~@!@$ . . . . . . . . . ",
". . . . . . . . . . . . _@:@<@[@}@|@                                                        |@}@[@<@:@_@. . . . . . . . . . . . ",
". . . . . . . . . . . . ; 1@:@2@3@4@                                                        4@3@2@:@1@; . . . . . . . . . . . . ",
". . . . . . . . . . . . , 5@6@7@8@4@                                                        4@8@7@6@5@, . . . . . . . . . . . . ",
". . . . . . . . . . . 9@* 0@a@b@8@4@                                                        4@8@b@a@0@* 9@. . . . . . . . . . . ",
". . . . . . . . . . $ c@H.d@e@f@g@4@                                                        4@g@f@e@d@H.c@$ . . . . . . . . . . ",
". . . . . . . . . . . , 4 h@i@9+j@k@                                                        k@j@9+i@h@4 , . . . . . . . . . . . ",
". . . . . . . . . . . . @ 1@l@m@n@o@                                                        o@n@m@l@1@@ . . . . . . . . . . . . ",
". . . . . . . . . . $ _+1@F p@q@'@F                                                         F '@q@p@F 1@_+$ . . . . . . . . . . ",
". . . . . . . . . . $ r@s@t@u@v@w@<+                                                        <+w@v@u@t@s@r@$ . . . . . . . . . . ",
". . . . . . . . . . . 6+x@y@z@A@B+                                                            B+A@z@y@x@6+. . . . . . . . . . . ",
". . . . . . . . . . . + _@B@C@D@E@J+                                                        J+E@D@C@B@_@+ . . . . . . . . . . . ",
". . . . . . . . . . . . F@G@H@I@J@J                                                         J J@I@H@G@F@. . . . . . . . . . . . ",
". . . . . . . . . . . . $ ; K@L@M@N@O@                                                    O@N@M@L@K@; $ . . . . . . . . . . . . ",
". . . . . . . . . . . . . =@= P@Q@R@S@T@                                                T@S@R@Q@P@= =@. . . . . . . . . . . . . ",
". . . . . . . . . . . . . . $ U@V@W@X@Y@Z@                                            Z@Y@X@W@V@U@$ . . . . . . . . . . . . . . ",
". . . . . . . . . . . . . . . . 2 `@ #.#+#                                            +#.# #`@2 . . . . . . . . . . . . . . . . ",
". . . . . . . . . . . . . . . . U@4.t+@###$#                                        $###@#t+4.U@. . . . . . . . . . . . . . . . ",
". . . . . . . . . . . . . . . . . 9@5.%#&#*#                                        *#&#%#5.9@. . . . . . . . . . . . . . . . . ",
". . . . . . . . . . . . . . . . . . 9@=#-#;#                                        ;#-#=#9@. . . . . . . . . . . . . . . . . . ",
". . . . . . . . . . . . . . . . . . . U@2 >#,#'#                                '#,#>#2 U@. . . . . . . . . . . . . . . . . . . ",
". . . . . . . . . . . . . . . . . . . . . U@V@)#!#          ~#{#]#^#/#        !#)#V@U@. . . . . . . . . . . . . . . . . . . . . ",
". . . . . . . . . . . . . . . . . . . . . . 2 (#_#J+    :#<#[#}#|#1#2#3#  4#J+5#(#2 . . . . . . . . . . . . . . . . . . . . . . ",
". . . . . . . . . . . . . . . . . . . . . . . 6+= V+6#7#:@8#9#0#d@h@1@%+a#b#c#= 6+. . . . . . . . . . . . . . . . . . . . . . . ",
". . . . . . . . . . . . . . . . . . . . . . . . 6+= d#e#_@; , * H.4 @ 1@N@f#g#h#. . . . . . . . . . . . . . . . . . . . . . . . ",
". . . . . . . . . . . . . . . . . . . . . . . . $ 6+= > . . . 9@c@, . _+r@6++ . . . . . . . . . . . . . . . . . . . . . . . . . ",
". . . . . . . . . . . . . . . . . . . . . . . . . $ =@!@. . . . $ . . $ $ . . . . . . . . . . . . . . . . . . . . . . . . . . . ",
". . . . . . . . . . . . . . . . . . . . . . . . . . . $ . . . . . . . . . . . . . . . . . . . . . . . . . . . . . . . . . . . . ",
". . . . . . . . . . . . . . . . . . . . . . . . . . . . . . . . . . . . . . . . . . . . . . . . . . . . . . . . . . . . . . . . ",
". . . . . . . . . . . . . . . . . . . . . . . . . . . . . . . . . . . . . . . . . . . . . . . . . . . . . . . . . . . . . . . . ",
". . . . . . . . . . . . . . . . . . . . . . . . . . . . . . . . . . . . . . . . . . . . . . . . . . . . . . . . . . . . . . . . ",
". . . . . . . . . . . . . . . . . . . . . . . . . . . . . . . . . . . . . . . . . . . . . . . . . . . . . . . . . . . . . . . . ",
". . . . . . . . . . . . . . . . . . . . . . . . . . . . . . . . . . . . . . . . . . . . . . . . . . . . . . . . . . . . . . . . ",
". . . . . . . . . . . . . . . . . . . . . . . . . . . . . . . . . . . . . . . . . . . . . . . . . . . . . . . . . . . . . . . . ",
". . . . . . . . . . . . . . . . . . . . . . . . . . . . . . . . . . . . . . . . . . . . . . . . . . . . . . . . . . . . . . . . ",
". . . . . . . . . . . . . . . . . . . . . . . . . . . . . . . . . . . . . . . . . . . . . . . . . . . . . . . . . . . . . . . . ",
". . . . . . . . . . . . . . . . . . . . . . . . . . . . . . . . . . . . . . . . . . . . . . . . . . . . . . . . . . . . . . . . "};
