/* XPM */
static char * mandrake root_xpm[] = {
"32 32 83 1",
" 	c None",
".	c #000000",
"+	c #4C6971",
"@	c #170504",
"#	c #160403",
"$	c #2D0504",
"%	c #190605",
"&	c #0B0000",
"*	c #130201",
"=	c #160504",
"-	c #0F0000",
";	c #150503",
">	c #120000",
",	c #1B0101",
"'	c #F7D4B7",
")	c #F9D9BD",
"!	c #FBDFC2",
"~	c #EEC6AB",
"{	c #F3CFB3",
"]	c #0B0000",
"^	c #FCE5C9",
"/	c #250202",
"(	c #EDBFA4",
"_	c #F4CAAE",
":	c #5C2423",
"<	c #6B2F2C",
"[	c #FDECCF",
"}	c #87473D",
"|	c #642B29",
"1	c #9B5D50",
"2	c #2E0504",
"3	c #FEF2D6",
"4	c #A86B5B",
"5	c #8C4F45",
"6	c #56201F",
"7	c #713531",
"8	c #783C36",
"9	c #B37867",
"0	c #E5BBA2",
"a	c #632522",
"b	c #A06558",
"c	c #7F433C",
"d	c #93574C",
"e	c #4F1C1B",
"f	c #813E34",
"g	c #E0B39B",
"h	c #E8B69C",
"i	c #AC7263",
"j	c #7A372E",
"k	c #481716",
"l	c #B77E6D",
"m	c #C28A76",
"n	c #985446",
"o	c #3F1211",
"p	c #E1AE95",
"q	c #723028",
"r	c #BF8470",
"s	c #350C0C",
"t	c #C88F7A",
"u	c #DAAC93",
"v	c #3A0403",
"w	c #6B2920",
"x	c #C9947F",
"y	c #CD9883",
"z	c #D3A18B",
"A	c #D19D86",
"B	c #FEF7E0",
"C	c #470906",
"D	c #A66151",
"E	c #D8A58C",
"F	c #B3705D",
"G	c #904B3E",
"H	c #5F1D15",
"I	c #53120C",
"J	c #BD7C67",
"K	c #D99D85",
"L	c #D1947D",
"M	c #DAA591",
"N	c #B98674",
"O	c #CA8872",
"P	c #C1917D",
"Q	c #E1A78D",
"R	c #C9A08E",
"                                ",
"                                ",
"                                ",
"            iPgl0               ",
"             dgRlg              ",
"           NP8NPP'5             ",
"          diug8ig0d1            ",
"           k9'yRPxNy            ",
"          8e4~P0)gdM            ",
"            }g0iu~Pbb           ",
"            |i(~{uNy5           ",
"           kk8dg{[)N7           ",
"           dbNgux{^'c           ",
"          bdgRR~)P''zc          ",
"          78x'{){!ugMi          ",
"          kPcx~uig0A5d          ",
"         c7NPii8$cgPs|          ",
"         9NcPP0d>9{0bd          ",
"         lgiyiiR{{~Mu1          ",
"         dE~N7EP(0Pd4<          ",
"         :9g)N8994i1<s          ",
"         s79u0~d:<7:e           ",
"          k<bN00udoc7           ",
"          :<68dPzuN|e           ",
"           5b95c9i1c            ",
"           :dixlcc<:            ",
"            o:c4id1o            ",
"             kkk:7:             ",
"               ok               ",
"                                ",
"                                ",
"                                "};
