/* XPM */
static char * root_xpm[] = {
"64 64 549 2",
"  	c #4FAF7B",
". 	c #4FB07A",
"+ 	c #4FAF7A",
"@ 	c #4FB079",
"# 	c #4FB178",
"$ 	c #4FB374",
"% 	c #4FB276",
"& 	c #4FB277",
"* 	c #4FB177",
"= 	c #50B374",
"- 	c #50B471",
"; 	c #50B375",
"> 	c #50B177",
", 	c #51B572",
"' 	c #54B96A",
") 	c #55B76E",
"! 	c #54B572",
"~ 	c #55B66F",
"{ 	c #55B969",
"] 	c #52B571",
"^ 	c #51B474",
"/ 	c #54B96B",
"( 	c #56BC64",
"_ 	c #56BB64",
": 	c #53B86D",
"< 	c #51B375",
"[ 	c #51B56F",
"} 	c #52B76D",
"| 	c #57BA68",
"1 	c #5FC060",
"2 	c #62BF63",
"3 	c #63BD67",
"4 	c #62BE65",
"5 	c #61C05F",
"6 	c #59BB67",
"7 	c #52B570",
"8 	c #5DAC73",
"9 	c #7EAC77",
"0 	c #51B570",
"a 	c #51B66E",
"b 	c #56B96A",
"c 	c #5EBF62",
"d 	c #63C25B",
"e 	c #62C25B",
"f 	c #5CBE62",
"g 	c #55B86C",
"h 	c #51B374",
"i 	c #55B96A",
"j 	c #57BC62",
"k 	c #59BE60",
"l 	c #61C15E",
"m 	c #6BC55A",
"n 	c #6FC55A",
"o 	c #70C55B",
"p 	c #6FC55B",
"q 	c #6CC55A",
"r 	c #62C15D",
"s 	c #58BB66",
"t 	c #938E69",
"u 	c #C3947F",
"v 	c #C2B393",
"w 	c #919D6F",
"x 	c #DEBA9E",
"y 	c #7FB171",
"z 	c #55B672",
"A 	c #56B96C",
"B 	c #57BC64",
"C 	c #58BD60",
"D 	c #5EBF5E",
"E 	c #69C45A",
"F 	c #6FC758",
"G 	c #6FC658",
"H 	c #67C35B",
"I 	c #5DBE61",
"J 	c #54B86C",
"K 	c #50B275",
"L 	c #50B472",
"M 	c #5FBF60",
"N 	c #65C35A",
"O 	c #67C459",
"P 	c #6BC559",
"Q 	c #71C758",
"R 	c #74C857",
"S 	c #72C757",
"T 	c #6CC559",
"U 	c #63C15E",
"V 	c #5D9B56",
"W 	c #7C875A",
"X 	c #DBB49C",
"Y 	c #BFA387",
"Z 	c #AD816F",
"` 	c #D3B99C",
" .	c #83B26B",
"..	c #68BB60",
"+.	c #66C35C",
"@.	c #66C359",
"#.	c #6AC459",
"$.	c #70C658",
"%.	c #73C857",
"&.	c #6FC657",
"*.	c #5DBE62",
"=.	c #51B76C",
"-.	c #50B56F",
";.	c #4FB078",
">.	c #59BC66",
",.	c #68C35D",
"'.	c #70C758",
").	c #71C757",
"!.	c #72C857",
"~.	c #80B459",
"{.	c #9BA969",
"].	c #AAA673",
"^.	c #6D7345",
"/.	c #B68673",
"(.	c #B3907C",
"_.	c #F3D4B9",
":.	c #7D854C",
"<.	c #8FB864",
"[.	c #7ABF59",
"}.	c #68C35B",
"|.	c #5DBF5F",
"1.	c #56BC63",
"2.	c #52B86B",
"3.	c #50B373",
"4.	c #59B96C",
"5.	c #69C261",
"6.	c #72C759",
"7.	c #898752",
"8.	c #A77261",
"9.	c #D7AF97",
"0.	c #D9B59D",
"a.	c #744137",
"b.	c #AB7867",
"c.	c #E0B79E",
"d.	c #DEBAA1",
"e.	c #8C634E",
"f.	c #8D8753",
"g.	c #74C154",
"h.	c #75C857",
"i.	c #67C35C",
"j.	c #5CBC66",
"k.	c #53B670",
"l.	c #56B475",
"m.	c #63BC6A",
"n.	c #6EC360",
"o.	c #72C75A",
"p.	c #70C154",
"q.	c #4B361E",
"r.	c #AC7968",
"s.	c #F3D5BA",
"t.	c #C69A84",
"u.	c #C7A993",
"v.	c #B8927E",
"w.	c #C79782",
"x.	c #B98D79",
"y.	c #C69D82",
"z.	c #72C455",
"A.	c #73C858",
"B.	c #70C55C",
"C.	c #69C064",
"D.	c #5DB870",
"E.	c #53B278",
"F.	c #4EAF7B",
"G.	c #52B179",
"H.	c #58B475",
"I.	c #63BC6B",
"J.	c #6EC460",
"K.	c #749047",
"L.	c #649241",
"M.	c #A27160",
"N.	c #ECC5AA",
"O.	c #C39580",
"P.	c #DFBDA4",
"Q.	c #F2DCC2",
"R.	c #D2B49D",
"S.	c #8B5C4E",
"T.	c #D7A790",
"U.	c #739948",
"V.	c #72C65A",
"W.	c #6AC164",
"X.	c #5EB870",
"Y.	c #55B377",
"Z.	c #50B07A",
"`.	c #51B07A",
" +	c #5DB771",
".+	c #6BC262",
"++	c #74C858",
"@+	c #74C757",
"#+	c #826344",
"$+	c #DDB299",
"%+	c #E2C3A9",
"&+	c #A07464",
"*+	c #D3AA93",
"=+	c #EAC4AA",
"-+	c #B88F7A",
";+	c #9B6556",
">+	c #9D6B5C",
",+	c #72BA52",
"'+	c #75C956",
")+	c #71C65B",
"!+	c #67BE68",
"~+	c #56B376",
"{+	c #50B07B",
"]+	c #50AF7B",
"^+	c #5AB673",
"/+	c #69C066",
"(+	c #72C75B",
"_+	c #6EBE52",
":+	c #622B26",
"<+	c #AA7564",
"[+	c #E9C2A8",
"}+	c #E2C4AB",
"|+	c #EBD0B5",
"1+	c #CDAC96",
"2+	c #B98672",
"3+	c #C79984",
"4+	c #87554A",
"5+	c #6FA24A",
"6+	c #6FC45E",
"7+	c #64BC6B",
"8+	c #54B278",
"9+	c #57B376",
"0+	c #62BB6D",
"a+	c #6CC262",
"b+	c #619140",
"c+	c #421A16",
"d+	c #713E35",
"e+	c #915E50",
"f+	c #DDB69D",
"g+	c #E4CDB5",
"h+	c #F9E9CE",
"i+	c #F3DBC0",
"j+	c #B18673",
"k+	c #6B3831",
"l+	c #6DB54F",
"m+	c #6FC55D",
"n+	c #68BF66",
"o+	c #51B079",
"p+	c #57B474",
"q+	c #62BC6B",
"r+	c #73C757",
"s+	c #74C856",
"t+	c #72A74C",
"u+	c #8D594D",
"v+	c #9C6A5A",
"w+	c #B38875",
"x+	c #D5B49C",
"y+	c #CDB099",
"z+	c #C39882",
"A+	c #ECCDB3",
"B+	c #F7E2C8",
"C+	c #F1D3B8",
"D+	c #764C41",
"E+	c #70BD52",
"F+	c #73C759",
"G+	c #69C163",
"H+	c #5DB86F",
"I+	c #53B277",
"J+	c #5FBD66",
"K+	c #6EC55C",
"L+	c #938D5B",
"M+	c #8E584B",
"N+	c #DEB098",
"O+	c #C5A18C",
"P+	c #C19D88",
"Q+	c #E5C4AB",
"R+	c #EDDAC0",
"S+	c #BD9984",
"T+	c #F4D3B7",
"U+	c #EFD6BC",
"V+	c #D0A68F",
"W+	c #7E7345",
"X+	c #68C260",
"Y+	c #59BA6A",
"Z+	c #50B473",
"`+	c #4FB07B",
" @	c #53B76D",
".@	c #5FBE63",
"+@	c #6EC55B",
"@@	c #716C3C",
"#@	c #733F36",
"$@	c #C5947E",
"%@	c #F2D3B8",
"&@	c #E9D3B9",
"*@	c #E9D9C1",
"=@	c #F3DEC4",
"-@	c #D7B099",
";@	c #DEB49B",
">@	c #D6A790",
",@	c #A77362",
"'@	c #6CB950",
")@	c #73C758",
"!@	c #68C35E",
"~@	c #59BC67",
"{@	c #50B571",
"]@	c #4FB179",
"^@	c #53B571",
"/@	c #5FBC67",
"(@	c #6EC45D",
"_@	c #547132",
":@	c #BF9480",
"<@	c #7D473D",
"[@	c #EDCBB0",
"}@	c #D7AB93",
"|@	c #A47463",
"1@	c #DCB098",
"2@	c #E0B9A0",
"3@	c #D09E88",
"4@	c #8B5549",
"5@	c #925A4E",
"6@	c #6BB54E",
"7@	c #68C161",
"8@	c #51B178",
"9@	c #5EB86F",
"0@	c #6DC360",
"a@	c #7B8147",
"b@	c #6D3D34",
"c@	c #B88674",
"d@	c #B99884",
"e@	c #A17B6A",
"f@	c #A37464",
"g@	c #723E35",
"h@	c #2A0908",
"i@	c #7A453B",
"j@	c #E0B69E",
"k@	c #C09580",
"l@	c #33100E",
"m@	c #622E26",
"n@	c #72C556",
"o@	c #67BF66",
"p@	c #58B573",
"q@	c #51B179",
"r@	c #6DB24D",
"s@	c #AF7967",
"t@	c #B08471",
"u@	c #7B473E",
"v@	c #B59380",
"w@	c #BA9581",
"x@	c #DDBCA4",
"y@	c #815D50",
"z@	c #130000",
"A@	c #A77E6C",
"B@	c #F1CFB4",
"C@	c #DDBAA1",
"D@	c #956E5E",
"E@	c #8C5D50",
"F@	c #6CAE4D",
"G@	c #67BF67",
"H@	c #58B574",
"I@	c #4FB373",
"J@	c #5EBB6B",
"K@	c #6DC45E",
"L@	c #6E9745",
"M@	c #B5806E",
"N@	c #DFB59B",
"O@	c #A07B69",
"P@	c #C79A85",
"Q@	c #A77A68",
"R@	c #A57C6B",
"S@	c #C7A18B",
"T@	c #E8D1B8",
"U@	c #EFD3B9",
"V@	c #EBC5AB",
"W@	c #D9A890",
"X@	c #DCAD96",
"Y@	c #976355",
"Z@	c #72A049",
"`@	c #68C063",
" #	c #59B86E",
".#	c #4FB473",
"+#	c #51B868",
"@#	c #55BB65",
"##	c #60BF61",
"$#	c #6C9745",
"%#	c #8D574C",
"&#	c #D5A890",
"*#	c #E5C5AB",
"=#	c #A58574",
"-#	c #6B3A32",
";#	c #D3A790",
">#	c #C09A85",
",#	c #EAC2A7",
"'#	c #E6BCA3",
")#	c #BF907B",
"!#	c #87584C",
"~#	c #A66C5D",
"{#	c #6A342E",
"]#	c #68A949",
"^#	c #72C758",
"/#	c #69C35D",
"(#	c #5BBD63",
"_#	c #52BA67",
":#	c #51B86A",
"<#	c #55BA66",
"[#	c #67C45A",
"}#	c #6CB54F",
"|#	c #5C2B26",
"1#	c #B17A68",
"2#	c #DCB29A",
"3#	c #F3D8BE",
"4#	c #B08C79",
"5#	c #6E3F35",
"6#	c #B07D6B",
"7#	c #AD7868",
"8#	c #A96F5F",
"9#	c #A77A6A",
"0#	c #926053",
"a#	c #6B322C",
"b#	c #4F7933",
"c#	c #6DC658",
"d#	c #63C25C",
"e#	c #5ABE62",
"f#	c #53B86A",
"g#	c #50B277",
"h#	c #59B86F",
"i#	c #66C162",
"j#	c #598D3D",
"k#	c #6F3731",
"l#	c #AB7968",
"m#	c #D9AC94",
"n#	c #E3C0A7",
"o#	c #E3C7AE",
"p#	c #8A6457",
"q#	c #572623",
"r#	c #672F2B",
"s#	c #703630",
"t#	c #592723",
"u#	c #491F1B",
"v#	c #68AD4B",
"w#	c #6DC45B",
"x#	c #62BD66",
"y#	c #54B573",
"z#	c #5BB772",
"A#	c #6AC163",
"B#	c #6CB44E",
"C#	c #421715",
"D#	c #68312D",
"E#	c #9F6859",
"F#	c #BB8976",
"G#	c #E7BFA5",
"H#	c #E1C1A7",
"I#	c #D6B098",
"J#	c #835C4F",
"K#	c #411714",
"L#	c #7E483E",
"M#	c #733933",
"N#	c #68A448",
"O#	c #71C55B",
"P#	c #65BD69",
"Q#	c #54B277",
"R#	c #54B178",
"S#	c #5FB970",
"T#	c #6EBD52",
"U#	c #592A23",
"V#	c #623830",
"W#	c #572421",
"X#	c #733E37",
"Y#	c #90594C",
"Z#	c #C4917C",
"`#	c #D4A38C",
" $	c #D6AA93",
".$	c #BA8775",
"+$	c #5D2D27",
"@$	c #4F331F",
"#$	c #70C053",
"$$	c #68BF67",
"%$	c #59B575",
"&$	c #52B07A",
"*$	c #70C55D",
"=$	c #659743",
"-$	c #8A5248",
";$	c #9A6D5E",
">$	c #A87C6A",
",$	c #835A4D",
"'$	c #77443A",
")$	c #A97D6C",
"!$	c #AB7666",
"~$	c #996154",
"{$	c #80463D",
"]$	c #64A748",
"^$	c #59B574",
"/$	c #62BB6C",
"($	c #6CC261",
"_$	c #5F542E",
":$	c #8F5A4E",
"<$	c #A97464",
"[$	c #C89681",
"}$	c #AB8270",
"|$	c #76453C",
"1$	c #79423A",
"2$	c #66302C",
"3$	c #5E2926",
"4$	c #6AAE4C",
"5$	c #75C856",
"6$	c #69BF66",
"7$	c #53B178",
"8$	c #5BB672",
"9$	c #6FC45F",
"0$	c #74C758",
"a$	c #6CBD5B",
"b$	c #4A5E33",
"c$	c #7D4940",
"d$	c #A16C5D",
"e$	c #A67666",
"f$	c #905F52",
"g$	c #936053",
"h$	c #4D6635",
"i$	c #70C359",
"j$	c #6BC163",
"k$	c #61BA6D",
"l$	c #5AB573",
"m$	c #66BE68",
"n$	c #71C65C",
"o$	c #6FC55E",
"p$	c #59AD6B",
"q$	c #485037",
"r$	c #421615",
"s$	c #451918",
"t$	c #5B2724",
"u$	c #6D332F",
"v$	c #5C372B",
"w$	c #5BA962",
"x$	c #6EC45F",
"y$	c #71C65A",
"z$	c #56B276",
"A$	c #65BD6A",
"B$	c #69C065",
"C$	c #5CB772",
"D$	c #4BA574",
"E$	c #45704B",
"F$	c #485739",
"G$	c #498E5D",
"H$	c #4FAB74",
"I$	c #5BB773",
"J$	c #5DB871",
"K$	c #63BC6C",
"L$	c #6DC361",
"M$	c #6BC263",
"N$	c #60BA6E",
"O$	c #5FB96F",
"P$	c #64BD6A",
"Q$	c #63BB6C",
"R$	c #61BA6E",
"S$	c #56B377",
"T$	c #53B179",
"U$	c #57B475",
"V$	c #4EAE7C",
"W$	c #5BB673",
"X$	c #4FAE7B",
"                                                                                                                                ",
"                                                                                                                                ",
"                                                                                                                                ",
"                                                                                                                                ",
"                                                                                                                                ",
"                                                                                                                                ",
"                                                                                                                                ",
"                                                                                                                                ",
"                                                                                                                                ",
"                                                                                                                                ",
"                                                                                                                                ",
"                                                                                                                                ",
"                                                                                                                                ",
"                                                                                                                                ",
"                                                                                                                                ",
"                                        . . . . . + +                         . @ @ .                                           ",
"                                        # $ % # & $ * +                     @ = - - ; @                                         ",
"                                  . @ > , ' ) ! ~ { ] > +     . @ . + . @ # ^ / ( _ : < .                                       ",
"                                @ = [ } | 1 2 3 4 5 6 7 *   + 8 9 $ # ; 0 a b c d e f g = .                                     ",
"                              @ h i j k l m n o p q r s t u v w x y z A B C D E F G H I J K # @ .                               ",
"                            @ L b M N O P Q R R R S T U V W X Y Z `  ...+.@.#.$.%.%.&.H *.' =.-.K +                             ",
"                            ;.0 >.,.'.).!.R R R R R ~.{.].^./.u (._.:.<.[.).S %.R R %.$.}.|.1.2.3.+                             ",
"                            . = 4.5.6.R R R R R R R 7.8.9.0.a.b.c.d.e.f.g.h.R R R R R %.G i.j.k.& +                             ",
"                              . l.m.n.o.R R R R R R p.q.r.s.t.u.v.w.x.y.z.R R R R R R A.B.C.D.E.F.                              ",
"                                G.H.I.J.A.R R R R R K.L.M.N.O.P.Q.R.S.T.U.R R R R R R V.W.X.Y.Z.                                ",
"                                  `. +.+++R R R R R R @+#+$+%+&+*+=+-+;+>+,+R R R R '+)+!+~+{+                                  ",
"                                  ]+^+/+(+++R R R R R _+:+<+[+}+|+1+2+3+4+5+R R R R A.6+7+8+                                    ",
"                                  ]+9+0+a+V.R R R R R b+c+d+e+f+g+h+i+j+k+l+R R R A.m+n+D.G.                                    ",
"                                    o+p+q+6+r+s+R R t+u+v+w+x+y+z+A+B+C+D+E+R R s+F+G+H+I+Z.                                    ",
"                                    * k.J+K+%.R R R L+M+N+O+P+Q+R+S+T+U+V+W+R R R F+X+Y+Z+@                                     ",
"                                  `+%  @.@+@A.R R R @@#@$@%@&@*@A+=@-@;@>@,@'@R R )@!@~@{@]@                                    ",
"                                    # ^@/@(@A.R R R _@:@<@w.[@}@|@1@2@3@4@5@6@R R )@7@4.= .                                     ",
"                                    F.8@9@0@)@s+R a@b@c@d@e@f@g@h@i@j@k@l@m@n@R s+F+o@p@+                                       ",
"                                  + F.q@D.0@)@s+r@s@t@u@v@w@x@y@z@A@B@C@D@E@F@R s+F+G@H@  +                                     ",
"                                @ % I@] J@K@)@R L@M@N@O@P@Q@R@S@T@U@V@W@X@Y@Z@R R F+`@ #.#= * .                                 ",
"                                * [ +#@###+@A.R $#%#&#*#=#-#;#>#,#'#)#!#~#{#]#R R ^#/#(#_#:#Z+@                                 ",
"                                > [ <#|.[#'.R R }#|#1#2#3#4#5#6#7#8#9#0#a#b#R R R %.c#d#e#f#Z+@                                 ",
"                                . g#h#i#F %.R R R j#k#l#m#n#o#p#q#r#s#t#u#v#R R R %.!.w#x#y## +                                 ",
"                                F.Z.z#A#)@R R R R B#C#D#E#F#G#H#I#J#K#L#M#N#R R R R s+O#P#Q#                                    ",
"                                ]+R#S#a+)@R R R R T#U#V#W#X#Y#Z#`# $.$+$@$#$R R R R R )+$$%$&$                                  ",
"                                8+X.n+*$++R R R R R =$-$;$>$,$'$)$!$~${$]$R R R R R R 6.0@7+^$G.                                ",
"                                ~+/$($V.R R R R R R z._$:$<$[$}$|$1$2$3$4$5$R R R R R A.*$6$ +G.F.                              ",
"                                7$8$P#9$0$R %.%.%.R r+a$b$q#c$d$e$f$g$h$i$0$0$++R R R V.j$k$H.`.                                ",
"                                ]+&$l$m$6+6.n$o$B.6.*$G@p$q$r$s$t$u$v$w$W.0@x$y$R R V.a+0+z$`.                                  ",
"                                    G.^+A$n.B$A$n+x$m$C$E.  D$E$F$G$H$~+I$J$K$L$6.o.M$N$9+`.                                    ",
"                                      G.^+7+O$^+X.P$C$7$      Z.Z.Z.  Z.`.o+H.Q$B$/+R$~+]+                                      ",
"                                        7$H.S$T$Q#U$8+]+F.              V$F.&$9+W$^+~+`.X$                                      ",
"                                                                                ]+]+                                            ",
"                                                                                                                                ",
"                                                                                                                                ",
"                                                                                                                                ",
"                                                                                                                                ",
"                                                                                                                                ",
"                                                                                                                                ",
"                                                                                                                                ",
"                                                                                                                                ",
"                                                                                                                                ",
"                                                                                                                                ",
"                                                                                                                                ",
"                                                                                                                                ",
"                                                                                                                                ",
"                                                                                                                                ",
"                                                                                                                                ",
"                                                                                                                                "};
