/* XPM */
static char * tile_xpm[] = {
"64 42 5 1",
" 	c None",
".	c #5C604E",
"+	c #CAC6BE",
"@	c #A8A49C",
"#	c #8B8876",
".                      ....+++++++....                      ..++",
".                      ....+++++++....                      ..++",
".                   ...+++++++++++++++....                  ....",
".               ....++++++++++++++++++++++...               ....",
".               ....++++++++++++++++++++++...               ....",
".           ....+++++++++++++++++++++++++++++....           ..@@",
".           ....+++++++++++++++++++++++++++++....           ..@@",
".        ...+++++++++++++++++++++++++++++++++++++....       ..@@",
".        ...+++++++++++++++++++++++++++++++++++++....       ..@@",
".    ....++++++++++++++++++++++++++++++++++++++++++++...    ..@@",
".    ....++++++++++++++++++++++++++++++++++++++++++++...    ..@@",
".....+++++++++++++++++++++++++++++++++++++++++++++++++++......@@",
".....+++++++++++++++++++++++++++++++++++++++++++++++++++......@@",
".....+++++++++++++++++++++++++++++++++++++++++++++++++++......@@",
"...@@....++++++++++++++++++++++++++++++++++++++++++++...##....@@",
"...@@....++++++++++++++++++++++++++++++++++++++++++++...##....@@",
"...@@@@@@...+++++++++++++++++++++++++++++++++++++....#####....@@",
"...@@@@@@...+++++++++++++++++++++++++++++++++++++....#####....@@",
"...@@@@@@@@@....+++++++++++++++++++++++++++++....#########....@@",
"...@@@@@@@@@....+++++++++++++++++++++++++++++....#########....@@",
"...@@@@@@@@@@@@@....++++++++++++++++++++++...#############....@@",
"...@@@@@@@@@@@@@....++++++++++++++++++++++...#############....@@",
"...@@@@@@@@@@@@@@@@@...+++++++++++++++....################....@@",
"...@@@@@@@@@@@@@@@@@...+++++++++++++++....################....@@",
"...@@@@@@@@@@@@@@@@@@@@....+++++++....####################....@@",
"...@@@@@@@@@@@@@@@@@@@@@@@@.......########################....@@",
"...@@@@@@@@@@@@@@@@@@@@@@@@.......########################....@@",
".....@@@@@@@@@@@@@@@@@@@@@@@@....#######################......@@",
".....@@@@@@@@@@@@@@@@@@@@@@@@....#######################......@@",
"     ....@@@@@@@@@@@@@@@@@@@@....####################...      ..",
"     ....@@@@@@@@@@@@@@@@@@@@....####################...      ..",
"         ...@@@@@@@@@@@@@@@@@....################....           ",
"         ...@@@@@@@@@@@@@@@@@....################....           ",
"            ....@@@@@@@@@@@@@....############....               ",
"                ....@@@@@@@@@....#########...                   ",
"                ....@@@@@@@@@....#########...                   ",
"                    ...@@@@@@....#####....                      ",
"                    ...@@@@@@....#####....                      ",
"                       ....@@....#....                          ",
"                       ....@@....#....                          ",
"                           .......                              ",
"                           .......                              "};
